<?xml version="1.0" encoding="UTF-8" standalone="no"?>
<!-- Created with Inkscape (http://www.inkscape.org/) -->

<svg
   xmlns:dc="http://purl.org/dc/elements/1.1/"
   xmlns:cc="http://creativecommons.org/ns#"
   xmlns:rdf="http://www.w3.org/1999/02/22-rdf-syntax-ns#"
   xmlns:svg="http://www.w3.org/2000/svg"
   xmlns="http://www.w3.org/2000/svg"
   xmlns:sodipodi="http://sodipodi.sourceforge.net/DTD/sodipodi-0.dtd"
   xmlns:inkscape="http://www.inkscape.org/namespaces/inkscape"
   width="208.44258mm"
   height="301.80148mm"
   viewBox="0 0 738.57608 1069.3753"
   id="svg4278"
   version="1.1"
   inkscape:version="0.91 r13725"
   sodipodi:docname="Aaron Swartz.svg">
  <defs
     id="defs4280" />
  <sodipodi:namedview
     id="base"
     pagecolor="#ffffff"
     bordercolor="#666666"
     borderopacity="1.0"
     inkscape:pageopacity="0.0"
     inkscape:pageshadow="2"
     inkscape:zoom="0.35"
     inkscape:cx="-15.711961"
     inkscape:cy="316.62744"
     inkscape:document-units="px"
     inkscape:current-layer="layer1"
     showgrid="false"
     fit-margin-top="0"
     fit-margin-left="0"
     fit-margin-right="0"
     fit-margin-bottom="0"
     inkscape:window-width="1920"
     inkscape:window-height="1027"
     inkscape:window-x="-8"
     inkscape:window-y="-8"
     inkscape:window-maximized="1" />
  <metadata
     id="metadata4283">
    <rdf:RDF>
      <cc:Work
         rdf:about="">
        <dc:format>image/svg+xml</dc:format>
        <dc:type
           rdf:resource="http://purl.org/dc/dcmitype/StillImage" />
        <dc:title></dc:title>
      </cc:Work>
    </rdf:RDF>
  </metadata>
  <g
     inkscape:label="Layer 1"
     inkscape:groupmode="layer"
     id="layer1"
     transform="translate(36.430896,220.38565)">
    <path
       style="fill:#000000"
       d="m 372.61638,842.02271 c 2.70568,-10.3465 -6.60992,-12.04541 -18.3715,-3.34916 -12.0152,8.88277 -19.76347,7.01255 -19.76347,-4.77133 0,-4.7764 -1.94057,-8.53913 -4.40428,-8.53913 -2.42236,0 -9.63228,-3.90465 -16.02203,-8.67699 -15.40287,-11.5031 -36.51442,-21.66815 -45.1387,-21.73201 -10.19597,-0.10137 -16.05831,-4.85344 -14.8043,-12.06568 0.84742,-4.87473 -1.84944,-7.08047 -11.66792,-9.54165 -8.55099,-2.14391 -12.19422,-4.70241 -11.02688,-7.74442 1.02462,-2.67 -1.59359,-5.81135 -6.35093,-7.62075 -4.45182,-1.69181 -10.15563,-7.33591 -12.6751,-12.54109 -3.98888,-8.2401 -6.20445,-9.31966 -17.14374,-8.35566 -13.76246,1.21336 -19.9288,-5.71404 -12.76755,-14.34238 5.12814,-6.17931 -0.72781,-10.03125 -11.23843,-7.39369 -4.23256,1.06233 -10.54001,-0.15205 -14.01658,-2.69027 -5.34426,-3.90768 -5.63082,-5.45353 -1.8545,-10.00388 5.05303,-6.08808 2.75717,-15.58209 -3.77186,-15.59628 -2.37725,-0.007 -7.20292,-4.17935 -10.72389,-9.27607 -3.52087,-5.09672 -14.0254,-13.06617 -23.34333,-17.71079 -9.31784,-4.64361 -19.339051,-12.5563 -22.26936,-17.58308 -6.343327,-10.8807 -18.979601,-20.98696 -30.625613,-24.49222 -4.638034,-1.39582 -11.468428,-5.28019 -15.178855,-8.63138 -5.189773,-4.68821 -13.653489,-6.34961 -36.688366,-7.2021 -19.9669121,-0.73998 -30.481783,-2.51288 -31.561744,-5.32378 -0.891014,-2.31927 -5.251709,-4.21686 -9.691165,-4.21686 -8.981092,0 -10.855159,-4.95582 -3.012214,-7.9654 2.782821,-1.0684 5.059619,-3.90059 5.059619,-6.29385 0,-2.39429 10.245742,-7.89951 22.768181,-12.23497 24.951621,-8.63847 43.179891,-15.92876 52.236703,-20.89168 3.221434,-1.76581 7.541278,-3.21028 9.599732,-3.21028 5.71536,0 52.384382,-22.74365 75.560062,-36.82349 11.34496,-6.89192 23.31292,-13.56185 26.59538,-14.82083 5.27776,-2.02531 5.78774,-5.90157 4.40803,-33.50778 -1.48563,-29.72579 -10.36464,-96.82144 -14.11947,-106.69658 -0.97109,-2.55444 -0.2301,-6.49355 1.64681,-8.75606 2.11724,-2.55039 3.02285,-28.03499 2.38586,-67.14126 -0.96703,-59.39177 -1.44761,-63.45151 -8.32018,-70.32417 -9.00491,-9.00441 -14.2852,-5.24472 -5.8006,4.13069 5.52215,6.10228 5.71627,8.55231 1.93924,24.475 -3.02792,12.76511 -3.21089,20.25104 -0.65685,26.8713 2.82701,7.32678 2.50244,9.75655 -1.61092,12.05858 -4.60337,2.57675 -4.5904,3.34916 0.12164,7.25887 5.78084,4.79769 7.1429,13.66931 2.09869,13.66931 -6.69415,0 -12.70216,-20.17097 -15.54894,-52.20386 -1.94411,-21.87596 -13.12304,-46.12592 -20.0398,-43.47213 -3.53313,1.35628 -5.08709,-0.20274 -5.08709,-5.09064 0,-9.94712 14.95089,-13.32263 23.74739,-5.36129 4.34964,3.93607 6.61012,4.5392 6.61012,1.76378 0,-4.86053 -12.75467,-23.83334 -19.48207,-28.98074 -2.50305,-1.91482 -7.41407,-11.78084 -10.91345,-21.92461 C 98.202881,127.0062 93.051728,112.63544 90.255325,105.21439 87.221317,97.162828 85.111268,79.979142 85.022876,62.601845 84.886031,35.641339 84.333582,33.339301 77.574044,31.571466 72.169373,30.158414 71.162802,28.522355 73.69849,25.275579 75.582492,22.862037 78.901543,9.7664708 81.074237,-3.8268062 86.02367,-34.791298 96.980398,-56.667249 123.27543,-88.085864 c 21.42173,-25.595096 67.00594,-62.053666 93.95844,-75.148216 8.55636,-4.15705 16.22364,-10.10728 17.03843,-13.22228 0.81499,-3.11601 11.2216,-10.22283 23.12641,-15.79394 20.66969,-9.67242 23.23629,-10.06166 56.9533,-8.64152 33.11498,1.3938 37.05957,0.83121 63.50077,-9.00339 l 28.19252,-10.49044 11.44096,7.07134 c 6.29254,3.88944 11.44095,9.27202 11.44095,11.96128 0,7.80118 9.41281,9.29025 19.0022,3.00755 10.03348,-6.57465 15.21028,-2.58688 12.09711,9.31762 -1.63272,6.24419 -0.65382,6.71352 10.28791,4.93859 15.00906,-2.43584 26.07405,0.23314 26.07405,6.29183 0,2.52809 5.79676,7.55486 12.88179,11.1696 l 12.88178,6.57161 -1.49962,20.73152 c -1.95769,27.0639 4.37864,34.44846 7.08219,8.25328 1.08371,-10.49957 2.81313,-19.93276 3.84322,-20.96366 2.9005,-2.9001 15.41514,9.72715 22.61856,22.82171 3.57176,6.49355 10.85729,18.84914 16.18999,27.4572 5.3327,8.608062 13.12608,25.305188 17.3186,37.103261 4.19243,11.799086 9.53152,23.729949 11.86468,26.512465 6.72953,8.026217 28.36818,72.288662 28.36818,84.246893 0,3.240694 4.5537,15.935862 10.11924,28.210358 10.0797,22.229722 12.80535,35.957813 7.13956,35.957813 -1.6388,0 -3.77358,-3.03593 -4.74386,-6.74697 -3.11885,-11.92579 -9.14186,-7.269003 -9.14186,7.06932 0,8.80471 2.6772,17.57395 7.38163,24.18103 l 7.38152,10.36677 -7.38152,4.90109 c -4.05994,2.69534 -7.38163,6.49355 -7.38163,8.4408 0,1.94624 -2.52505,6.32934 -5.61126,9.73932 -3.60997,3.98878 -5.41369,11.24258 -5.05738,20.3372 0.4308,11.00032 -0.34465,13.23849 -3.49594,10.087 -2.22743,-2.22702 -5.06256,-4.0496 -6.30014,-4.0496 -7.42106,0 -46.66194,74.88163 -40.34447,76.98701 2.28106,0.76025 2.57989,2.77238 0.7633,5.13828 -1.64204,2.13782 -4.89368,17.54861 -7.22583,34.24573 -5.13209,36.7424 -5.69083,38.79001 -10.58552,38.79001 -2.52667,0 -3.15646,-3.79011 -1.82166,-10.96282 7.80878,-41.95973 5.57142,-77.96317 -2.88227,-46.37932 l -4.06267,15.17865 -3.64373,-12.66577 c -2.90608,-10.10221 -2.60218,-14.75393 1.50144,-22.97984 4.83145,-9.68559 4.73555,-15.14317 -0.56157,-31.9741 -1.63626,-5.19809 -0.0405,-8.04751 6.47379,-11.53249 9.91751,-5.30757 11.47735,-17.04076 3.34642,-25.17139 -3.84697,-3.84686 -12.02828,-5.30046 -29.83476,-5.30046 -20.34592,0 -25.58881,1.1647 -30.71148,6.82603 -8.4923,9.38352 -2.15932,15.12797 15.28965,13.86798 7.95901,-0.57779 13.45349,0.50684 13.45349,2.65885 0,1.99794 -2.1284,3.63096 -4.72967,3.63096 -2.60127,0 -6.39594,4.78045 -8.4326,10.62323 -4.6506,13.34087 -4.6874,12.98913 1.35649,12.98913 2.78282,0 5.05962,1.7131 5.05962,3.80733 0,2.61831 -5.266,3.10892 -16.86529,1.57018 -9.27597,-1.2306 -16.8653,-0.93258 -16.8653,0.65888 0,1.59044 6.8304,6.30298 15.17876,10.47219 8.34836,4.16922 15.17875,8.12759 15.17875,8.79559 0,1.56612 -15.28346,-2.88996 -30.35751,-8.85235 -6.49314,-2.56863 -14.08257,-4.45912 -16.86539,-4.20165 -2.78272,0.25342 -6.87986,0.63861 -9.10466,0.86162 -2.99234,0.28382 -3.66015,11.14324 -2.56569,41.70936 0.92244,25.77452 0.34667,38.78189 -1.53125,34.57416 -3.89734,-8.73274 -17.2821,-81.52013 -17.21064,-93.59392 0.0507,-9.40176 25.21182,-47.171 36.847,-55.31987 6.72629,-4.71153 67.30801,-6.87165 82.10816,-2.92849 10.45993,2.78759 11.61307,-0.17232 4.19719,-10.755 -4.47717,-6.39219 -7.27398,-7.02472 -23.61145,-5.33899 -15.70505,1.62085 -18.53268,1.06942 -18.53268,-3.61879 0,-4.13374 3.19559,-5.54476 12.64895,-5.58328 18.61376,-0.10137 20.73699,-2.6406 19.53965,-23.60831 -0.58083,-10.1762 -1.2307,-27.12877 -1.44377,-37.670913 -0.33451,-16.536966 -1.39318,-19.486738 -7.71664,-21.493799 l -7.32942,-2.326366 8.17269,-4.442903 c 4.4949,-2.442938 11.45403,-3.645148 15.46461,-2.668986 6.987,1.698906 7.11888,1.269111 3.15493,-10.261353 C 550.42211,42.870814 547.68552,40.322454 544.88861,48.242236 540.39634,60.963759 530.37259,65.77361 515.37498,62.403167 480.00863,54.45703 396.81272,60.998224 344.60105,75.829189 308.67983,86.032762 285.38282,103.60975 283.32487,122.06052 281.49388,138.47686 272.788,136.2326 251.4791,113.85184 231.41061,92.773649 226.54389,89.773194 226.54389,98.477555 c 0,2.782515 1.57129,5.059215 3.49168,5.059215 2.33428,0 2.25987,2.30204 -0.22503,6.94463 -2.04396,3.81849 -2.78576,11.18075 -1.64843,16.35856 1.66758,7.59237 -0.33958,12.28666 -10.37174,24.25706 -21.5681,25.73397 -29.4374,40.00539 -32.94865,59.75568 -4.77933,26.88347 -3.71275,60.32232 2.60239,81.58804 7.42653,25.00717 7.11068,31.66899 -1.37747,29.05272 -22.49865,-6.93653 -21.25163,-6.98417 -16.49956,0.62847 3.73627,5.98267 3.51479,8.00797 -1.47884,13.52638 -5.2067,5.75256 -5.60599,11.22839 -3.51895,48.25461 1.61771,28.69793 4.02974,44.52634 7.70945,50.59112 13.35233,22.00772 66.88693,88.46577 93.78044,116.41967 l 29.63202,30.80028 26.65692,5.80527 c 14.66127,3.19204 39.2574,6.29386 54.65794,6.89294 27.10171,1.0532 28.43469,0.73997 41.49883,-9.62072 16.4507,-13.05198 40.05029,-40.40072 58.53532,-67.83461 7.5802,-11.25069 14.80735,-21.21402 16.06024,-22.14153 2.56884,-1.90164 10.03409,-15.46045 10.03409,-18.22371 0,-0.99339 -2.2769,-0.93257 -5.05962,0.14192 -2.78282,1.06739 -5.05962,0.28382 -5.05962,-1.74148 0,-4.2351 18.75862,-36.15548 26.70456,-45.4427 3.51377,-4.10738 5.91627,-15.54966 7.02603,-33.46521 1.08452,-17.50603 3.19163,-27.72076 5.90289,-28.6138 2.31896,-0.77039 4.21635,0.51697 4.21635,2.84131 0,2.32738 2.35768,6.83719 5.23924,10.02111 4.74669,5.24472 4.61472,8.28268 -1.40373,32.30963 -3.65366,14.58667 -8.13407,30.31473 -9.95654,34.95327 -3.41586,8.6922 -31.79327,53.01987 -52.80102,82.47906 -6.55173,9.18788 -11.91231,18.52984 -11.91231,20.76092 0,2.23108 6.47227,7.84984 14.38282,12.48534 7.91056,4.63651 22.06946,16.54406 31.46423,26.46178 9.91134,10.46409 22.63438,20.00371 30.31027,22.72743 7.2759,2.58181 17.20133,8.00594 22.05669,12.05453 4.85527,4.04757 13.20352,8.96994 18.55184,10.93747 60.63615,22.31386 89.14219,31.39125 98.50787,31.36895 10.98815,0 20.84069,6.17627 20.84069,13.11888 0,1.929 -2.36732,2.60005 -5.26083,1.48907 -3.46532,-1.32993 -5.86974,0.31424 -7.04509,4.80479 -1.51685,5.8002 -3.76374,6.55741 -14.99153,5.0511 -11.04309,-1.48097 -14.63573,-0.34465 -21.9246,6.94666 -4.79465,4.79465 -7.73449,10.30798 -6.53309,12.25118 1.24124,2.00909 -0.69538,3.53466 -4.48507,3.53466 -8.99062,0 -17.3402,3.42214 -17.3402,7.10682 0,1.65633 2.36641,3.01262 5.2586,3.01262 9.8861,0 1.62248,5.91069 -13.63392,9.75249 -11.53574,2.90517 -15.23613,5.43123 -15.23613,10.40428 0,4.9102 -3.61757,7.48086 -14.33558,10.18533 -23.07979,5.82554 -29.58601,9.39568 -27.41828,15.04485 2.3072,6.01206 -7.03911,10.25932 -30.23192,13.73721 -21.72197,3.25793 -21.50758,11.60548 0.30816,11.9998 15.09178,0.27369 15.4345,0.47642 5.90289,3.46674 -5.56554,1.74756 -24.53906,2.97714 -42.16329,2.73285 -33.18614,-0.45615 -53.57109,4.32937 -61.59862,14.47314 -2.29687,2.90314 -9.86339,7.07945 -16.81461,9.28113 -6.95122,2.20169 -14.54055,6.6821 -16.8653,9.95624 -4.6434,6.53917 -16.69408,13.76864 -22.95033,13.76864 -2.36702,0 -3.24911,-2.8261 -2.17006,-6.95173 z m -24.64276,-13.28614 c 0,-1.85501 -1.51786,-3.37348 -3.37308,-3.37348 -1.85521,0 -3.37308,1.51847 -3.37308,3.37348 0,1.85501 1.51787,3.37349 3.37308,3.37349 1.85522,0 3.37308,-1.51848 3.37308,-3.37349 z m 26.51216,-73.24353 c 2.48288,-4.43682 7.82075,-5.77689 22.93585,-5.75865 20.94054,0 33.37793,-6.63952 29.79826,-15.9683 -2.32261,-6.0526 23.63436,-27.8282 30.17829,-25.31633 5.96077,2.28683 16.50696,-7.81943 22.00114,-21.08327 5.01025,-12.09609 2.7737,-16.81572 -4.93585,-10.41746 -7.57331,6.28474 -9.97459,1.74655 -5.18876,-9.80824 4.77751,-11.5335 2.53822,-17.17659 -6.816,-17.17659 -5.18846,0 -6.54707,2.36387 -6.54707,11.39261 0,6.26649 -2.2768,13.28208 -5.05962,15.59222 -4.19263,3.47891 -5.04583,3.11703 -4.97914,-2.11755 0.0405,-3.47282 1.49527,-12.38701 3.22438,-19.80807 2.74349,-11.77374 2.08886,-15.01849 -5.14,-25.47852 -10.06845,-14.56944 -10.06754,-14.54511 -0.9346,-26.89867 10.94801,-14.80765 5.13148,-15.78483 -11.72864,-1.96855 -10.6134,8.69626 -18.15295,12.18327 -26.34835,12.18327 -6.31433,0 -16.40661,1.41204 -22.42718,3.13933 -9.1228,2.61627 -11.49377,2.11653 -14.23138,-2.99843 -2.1657,-4.04656 -9.92005,-7.3278 -22.7618,-9.63085 -37.46493,-6.71859 -49.74632,-14.78332 -99.79391,-65.5346 -26.68723,-27.06187 -50.95787,-54.98638 -56.82071,-65.37545 -5.6289,-9.97347 -11.60741,-18.98295 -13.28553,-20.01993 -2.98505,-1.84487 -4.37327,11.2213 -3.15565,29.70146 0.44297,6.71859 -2.70274,12.38803 -11.44836,20.63624 -18.54037,17.48576 -17.04005,29.13685 9.48803,73.68144 44.83997,75.29216 76.05961,111.32499 126.52625,146.02991 37.06301,25.48765 36.80189,25.3285 54.31087,33.1084 15.46035,6.86962 19.24548,6.85239 23.13908,-0.10137 z m 91.54499,-35.00903 c 0,-5.68667 -7.06708,-6.58985 -13.93285,-1.78 -7.02999,4.92338 -6.95112,5.03489 3.36709,4.74092 5.81116,-0.16218 10.56576,-1.49718 10.56576,-2.96092 z m 38.79021,-67.14633 c 1.14666,-1.85602 0.47743,-3.37348 -1.48746,-3.37348 -1.96459,0 -3.57206,1.51746 -3.57206,3.37348 0,1.85502 0.66902,3.37248 1.48746,3.37248 0.81802,0 2.4255,-1.51746 3.57206,-3.37248 z M 473.66886,243.18057 c 3.28245,-3.28225 -1.22441,-11.47572 -6.31241,-11.47572 -2.58425,0 -4.69876,2.02328 -4.69876,4.49662 0,7.47073 6.43851,11.55176 11.01117,6.9791 z m -1.80545,-23.63365 c -1.12091,-1.1201 -4.03014,-1.23971 -6.46507,-0.26355 -2.69077,1.07651 -1.8915,1.8763 2.03788,2.03747 3.55574,0.14191 5.548,-0.64875 4.42719,-1.77088 z m 132.38798,-32.53567 c 0.12062,-4.06582 -4.00429,-2.9366 -10.39445,2.84637 -3.26756,2.95788 -5.051,7.69577 -3.96324,10.53099 1.60991,4.19557 3.122,3.66542 8.13012,-2.84739 3.38393,-4.39931 6.18631,-9.13821 6.22757,-10.52997 z m -414.81167,-5.90259 c 0,-1.85501 -1.51787,-3.37348 -3.37308,-3.37348 -1.85521,0 -3.37308,1.51847 -3.37308,3.37348 0,1.85501 1.51787,3.37247 3.37308,3.37247 1.85521,0 3.37308,-1.51746 3.37308,-3.37247 z m 441.87111,-37.30295 c 0,-1.74553 -2.2768,-3.17379 -5.05952,-3.17379 -5.21623,0 -6.70135,3.97966 -2.90263,7.77888 2.69483,2.69433 7.96215,-0.35478 7.96215,-4.60509 z m -428.3789,-11.60649 c 0,-2.8109 -2.99832,-5.05921 -6.74615,-5.05921 -3.74784,0 -6.74606,2.24831 -6.74606,5.05921 0,2.8109 2.99822,5.05921 6.74606,5.05921 3.74783,0 6.74615,-2.24831 6.74615,-5.05921 z m 361.35512,-20.30983 c 1.2163,-12.85736 -0.46426,-25.226127 -3.42751,-25.226127 -3.79699,0 -8.30335,29.101367 -5.26701,34.014617 2.94602,4.76626 7.8845,-0.22301 8.69452,-8.78849 z M 357.60964,63.420889 c 7.21326,-4.570626 -1.58973,-8.048518 -9.56628,-3.779965 -3.74874,2.006047 -6.8159,4.3537 -6.8159,5.215317 0,2.647699 11.53422,1.637073 16.38218,-1.435352 z m -46.73968,-30.88644 c 12.67378,-11.384496 13.78709,-13.278026 6.74605,-11.476739 -16.14042,4.128666 -32.05104,13.361147 -33.13465,19.225211 -1.89697,10.268449 10.32613,6.679053 26.3886,-7.748472 z M 106.65565,32.92978 c 1.06729,-1.727289 0.39837,-4.093188 -1.48746,-5.258906 -1.88552,-1.164703 -3.42812,0.24328 -3.42812,3.140341 0,5.924885 2.02399,6.797652 4.91558,2.118565 z M 273.67557,9.6478717 c 0.16016,-7.9228227 -8.15506,-2.1347831 -14.08278,9.8021613 -8.59032,17.298231 -7.07722,19.72495 4.05427,6.500648 5.46579,-6.493552 9.97853,-13.829461 10.02851,-16.3028093 z m -77.7649,4.9426413 c 7.46038,-12.0717626 9.27647,-20.7893004 3.60004,-17.2809983 -5.17072,3.19609267 -17.42008,28.6411663 -13.7877,28.6411663 1.74158,0 6.32599,-5.111924 10.18766,-11.360168 z M 115.23229,6.4730661 c 0,-9.0074466 -8.4399,-1.848929 -9.3523,7.9319459 -0.87682,9.404804 -0.68321,9.557868 4.21635,3.311651 2.82479,-3.60156 5.13595,-8.6607729 5.13595,-11.2435969 z M 401.09931,16.627984 c 29.28758,-1.503268 37.74349,-4.310113 26.25814,-8.7175378 -7.0905,-2.7206828 -53.21195,2.9406488 -61.91915,7.6004768 -8.74471,4.680101 -9.89968,8.885806 -1.44265,5.252823 3.24657,-1.394806 19.94329,-3.255899 37.10366,-4.135762 z m 88.71047,0.800797 c 5.4734,-2.831172 9.95168,-6.625329 9.95168,-8.4326973 0,-1.8083822 -0.4744,-3.286309 -1.053,-3.286309 -2.71804,0 -29.30461,13.8416253 -29.30461,15.2567053 0,3.305568 10.78968,1.434339 20.40593,-3.537699 z M 525.642,12.575343 c 12.8383,-6.881787 17.8294,-12.31707042 17.91759,-19.5151211 0.0912,-7.7180619 -9.30334,-4.3476189 -11.42282,4.0972428 -1.49364,5.95124 -3.65305,7.7129936 -7.59956,6.1985748 -5.17406,-1.985774 -14.65661,6.5006477 -14.65661,13.1168535 0,3.967493 2.01831,3.467755 15.7614,-3.89755 z M 465.52749,8.7528036 c 10.89367,-3.798211 14.43289,-9.7899977 5.78246,-9.7899977 -8.99032,0 -22.56545,6.7094631 -20.46189,10.1133575 2.56215,4.1458986 1.81133,4.1621176 14.67943,-0.3243735 z m 46.95316,-19.2758956 c 2.02369,-6.071866 -4.94821,-4.795659 -7.30104,1.3350001 -1.26059,3.2852953 -0.50683,4.8270831 1.9581,4.0060127 2.20432,-0.7298404 4.60864,-3.1383136 5.34294,-5.3410128 z m -24.41661,-5.520431 c 6.43355,-2.688245 11.69742,-6.482402 11.69742,-8.432697 0,-5.170717 -11.16098,-4.333428 -18.75041,1.40697 -3.7458,2.833199 -14.0401,4.998393 -24.05706,5.060226 -9.63024,0.101367 -18.44763,1.624909 -19.59419,3.47992 -3.26734,5.286274 37.3288,4.073928 50.70424,-1.514419 z m 77.03263,-9.448392 c 3.22843,-12.046421 2.45591,-22.767979 -1.64042,-22.767979 -2.14309,0 -2.98292,2.996401 -1.94837,6.952744 1.1127,4.255374 -0.0406,7.666365 -2.97967,8.793562 -6.16857,2.366913 -6.27886,14.610999 -0.13178,14.610999 2.5664,0 5.58145,-3.415044 6.70004,-7.589326 z m -173.67899,-2.424692 c 14.1371,-3.653256 36.11452,-7.586285 48.83878,-8.740852 29.07177,-2.637562 25.54553,-8.921285 -5.13149,-9.143278 -23.16634,-0.172323 -70.3932,13.041842 -72.83725,20.373697 -1.79612,5.388655 -1.1421,5.331889 29.12996,-2.489567 z m -131.62905,-6.221889 c 17.82017,-13.760532 33.99911,-22.505439 53.80454,-29.084139 17.69772,-5.878256 23.37689,-10.084975 18.05453,-13.374325 -8.42236,-5.206194 -87.34141,36.246711 -90.87658,47.732574 -2.16286,7.026741 6.02777,4.755113 19.01751,-5.27411 z m 237.91965,-35.785493 c -2.46484,-6.422595 -11.43914,-9.631865 -11.43914,-4.090147 0,5.593416 3.29533,8.888848 8.88895,8.888848 2.41537,0 3.56294,-2.159111 2.55019,-4.798701 z M 372.42834,-92.063494 c 3.24658,0 5.90289,-2.323325 5.90289,-5.105841 0,-5.836695 -9.14987,-6.543225 -21.90829,-1.692824 -10.38198,3.94722 -7.8398,11.659199 2.89382,8.779371 3.96476,-1.064351 9.86501,-1.955364 13.11158,-1.980706 z m 12.64895,-28.517496 c 0,-0.82107 -1.51787,-2.42571 -3.37308,-3.57217 -1.85511,-1.14747 -3.37298,-0.47642 -3.37298,1.48705 0,1.96449 1.51787,3.57217 3.37298,3.57217 1.85521,0 3.37308,-0.66902 3.37308,-1.48705 z m -53.96896,-15.37835 c 0,-1.85501 -1.51787,-3.37348 -3.37308,-3.37348 -1.85521,0 -3.37308,1.51847 -3.37308,3.37348 0,1.85501 1.51787,3.37349 3.37308,3.37349 1.85521,0 3.37308,-1.51848 3.37308,-3.37349 z m -8.4327,-26.98483 c 1.18701,-1.91989 -1.71786,-3.37247 -6.74605,-3.37247 -5.0283,0 -7.93317,1.45258 -6.74616,3.37247 1.14656,1.85602 4.18229,3.37348 6.74616,3.37348 2.56376,0 5.59949,-1.51746 6.74605,-3.37348 z m 126.17085,-24.45472 c 4.80103,-6.27257 1.70154,-7.74341 -6.01602,-2.85449 -2.55667,1.61883 -3.54307,4.73281 -2.19205,6.91828 1.35112,2.18648 2.73406,3.49411 3.07313,2.9072 0.33958,-0.58793 2.64993,-3.72422 5.13494,-6.97099 z m -85.6941,0.84134 c -1.14656,-1.85501 -4.2719,-3.37247 -6.94514,-3.37247 -2.67335,0 -4.86054,1.51746 -4.86054,3.37247 0,1.85501 3.12534,3.37349 6.94514,3.37349 3.81991,0 6.0071,-1.51848 4.86054,-3.37349 z m 0.84337,692.45025 c 4.17418,-0.8008 11.00467,-0.8008 15.17885,0 4.17408,0.80079 0.75924,1.46171 -7.58942,1.46171 -8.34836,0 -11.76361,-0.65889 -7.58943,-1.46171 z m 2.41151,-44.27901 c -22.57406,-8.36884 -30.30591,-12.66476 -51.39911,-28.56312 -9.7827,-7.37341 -21.16679,-13.57604 -25.29789,-13.78486 -5.07371,-0.25341 -7.86099,-2.84131 -8.5891,-7.96843 -1.11473,-7.84883 4.02071,-10.36982 8.00189,-3.92797 1.30905,2.11857 10.98713,3.37552 22.96716,2.98525 29.20507,-0.95284 32.06969,-0.58792 25.87862,3.33092 -3.93678,2.48956 -2.90487,3.92593 5.05962,7.04194 l 10.00489,3.91377 -8.30913,3.18393 c -11.51647,4.41148 -11.73066,4.96798 -4.67899,12.16603 20.15434,20.57339 63.5911,24.00871 97.04809,7.6765 11.27776,-5.50522 22.55258,-13.31451 25.05522,-17.35398 4.12887,-6.66486 3.97266,-7.10783 -1.68644,-4.78045 -7.85045,3.22751 -29.39006,8.42864 -30.46313,7.35618 -0.44196,-0.44601 0.071,-4.15401 1.142,-8.2472 1.71219,-6.54727 4.19881,-7.44133 20.68225,-7.44133 12.79694,0 20.71672,-1.79317 24.98426,-5.65525 4.74559,-4.29389 7.19055,-4.71152 10.16698,-1.73539 2.97654,2.97714 -0.4896,8.03432 -14.41515,21.02953 -35.06164,32.72321 -72.00443,43.4326 -106.15204,30.77393 z m -5.78459,-46.84359 c -8.81211,-0.69943 -16.02202,-2.87273 -16.02202,-4.84026 0,-3.9158 32.81159,-0.98326 45.24016,4.04352 6.02686,2.43787 5.58328,2.79164 -3.07688,2.45408 -5.56554,-0.21287 -17.32905,-0.96298 -26.14126,-1.65734 z m -100.6162,-19.44619 c -1.27479,-16.17509 5.82828,-24.87235 40.4217,-49.49433 18.86638,-13.42906 15.78158,-8.46716 -10.18229,16.37579 -11.28211,10.79455 -22.58176,24.18002 -25.11036,29.74607 -3.71478,8.17624 -4.69946,8.82397 -5.12905,3.37247 z M 390.8631,376.99782 c -8.87648,-5.68972 -19.95009,-10.34447 -24.60799,-10.34447 -17.19909,0 -33.25568,-28.24787 -18.77068,-33.02224 3.2266,-1.06334 3.94742,0.45615 2.45175,5.16869 -3.2637,10.28264 7.68918,21.15219 23.25272,23.07613 7.37514,0.9123 16.58025,4.63652 20.4557,8.27659 8.83705,8.30194 13.9657,8.28471 36.08969,-0.12164 9.75959,-3.709 20.40107,-6.74494 23.64764,-6.74595 5.62433,-0.002 7.75719,-7.15244 6.0372,-20.23989 -0.53522,-4.07596 0.519,-3.90465 5.41916,0.88189 5.70117,5.56503 5.73462,6.51484 0.53117,15.08945 -3.05378,5.03285 -9.84636,10.52693 -15.09462,12.20962 -5.24837,1.68269 -12.01044,5.20214 -15.02691,7.82247 -11.2439,9.76567 -27.09583,9.03481 -44.38534,-2.0466 z m 92.97132,-31.42977 c -1.79348,-2.31927 -4.33505,-6.0972 -5.64785,-8.39417 -4.01321,-7.02472 6.12974,-1.41103 10.71365,5.92894 4.53302,7.25887 0.2524,9.34094 -5.0658,2.46523 z m 90.41556,3.337 c 0.77343,-0.48656 5.04158,-3.89958 9.4857,-7.58933 l 8.08014,-6.71048 -3.98249,7.58933 c -2.19044,4.17428 -6.45899,7.58933 -9.4857,7.58933 -3.02671,0 -4.87067,-0.39533 -4.09765,-0.88189 z M 469.40395,325.97387 c 0,-1.9655 1.51787,-2.63452 3.37308,-1.48807 1.85521,1.14646 3.37308,2.75414 3.37308,3.57217 0,0.82107 -1.51787,1.48806 -3.37308,1.48806 -1.85521,0 -3.37308,-1.60768 -3.37308,-3.57216 z m 114.68418,-31.48451 c 0,-0.72984 2.35556,-2.23006 5.23478,-3.33496 3.00177,-1.15153 4.35563,-0.58793 3.17399,1.32588 -1.9809,3.20521 -8.40877,4.74092 -8.40877,2.00908 z m 23.84845,-27.98937 c 0.13076,-1.50124 1.54158,-5.76473 3.13598,-9.47576 2.79488,-6.50369 2.9074,-6.48038 3.13598,0.64874 0.13076,4.06481 -1.28077,8.32829 -3.13598,9.47475 -1.85511,1.14646 -3.26634,0.85148 -3.13598,-0.63861 z M 295.6913,242.63015 c -1.85521,-1.36237 -3.79618,-6.24013 -4.31335,-10.83914 -1.4236,-12.65969 -6.01723,-15.30638 -15.63318,-9.00542 -4.66794,3.05823 -11.19687,5.48191 -14.50872,5.3846 -9.46917,-0.27369 7.33641,-10.7317 25.8258,-16.06359 43.2696,-12.47824 66.795,-13.46454 57.62597,-2.41658 -3.18829,3.8418 -2.91145,6.49355 1.30662,12.51575 8.5073,12.14678 6.21864,14.97896 -4.10819,5.08557 -9.95928,-9.54165 -17.52398,-11.74942 -17.52398,-5.11294 0,2.17229 -2.51207,6.7267 -5.58236,10.11944 -3.63836,4.02021 -4.15634,6.16817 -1.48746,6.16817 2.25217,0 3.15686,1.51746 2.0102,3.37247 -2.411,3.9016 -18.63829,4.44594 -23.61135,0.79066 z m 54.79368,-46.94799 c -2.45621,-2.45612 -20.28044,-5.8296 -41.36076,-7.82957 -51.12015,-4.84837 -49.45794,-4.79566 -59.81255,-1.87123 -14.39569,4.06683 -11.23548,-3.06736 5.77446,-13.03576 14.0624,-8.24111 16.3319,-8.59083 34.57386,-5.32074 10.73797,1.92394 25.59499,4.12867 33.01574,4.89906 7.42076,0.77038 20.13407,3.77996 28.25192,6.68716 8.11775,2.90821 17.60446,5.28627 21.08164,5.28627 3.95138,0 6.32204,2.39226 6.32204,6.378 0,7.89038 -21.11773,11.53553 -27.84635,4.80681 z"
       id="path4265"
       inkscape:connector-curvature="0"
       sodipodi:nodetypes="ccssccccscccccccccccccccscsscsccsccsccscccsscscscsscccsssccccccscccsccssccsccssscssccssccsccsssscccccssccsscssssssccccscccccscccscccsccssssscccsccccscscccccsscscscsssccsccscccscccccssscscccccccscsccssssscccccccssccccccscccscccssssccsccscsssccsscccccccccccssssssscsssssscscccsscccccccscccscccscsccsccccccssscccscsccsscccccccsscsccsscscccccccccccccssccscccscsssssssscscsccccccssssscssccscccccccccsccccscccccscccscccscscccccccccsccccccccccssccssssssccscccccccsccscccscsccccccscscssc" />
  </g>
</svg>
